# xmcd CD database file
#
# Track frame offsets:
#	150
#	14571
#	28984
#	41947
#	54962
#	70289
#	81858
#	93820
#	105083
#	119928
#	129534
#	141725
#
# Disc length: 2085 seconds
#
# Revision: 0
# Processed by: cddbd v1.5.2PL0 Copyright (c) Steve Scherf et al.
# Submitted via: CDex 1.70beta3
#
DISCID=af08230c
DTITLE=Bossa Três - The Bossa Três
DYEAR=1963
DGENRE=Jazz
TTITLE0=Blues Walk
TTITLE1=Ceu É Mar
TTITLE2=Green Dolphin Street
TTITLE3=Menina Feia
TTITLE4=Sol É Chuva
TTITLE5=Olhou P'ra Mim 
TTITLE6=Bossa 3 Theme
TTITLE7=Não Faz Assim
TTITLE8=Somebody Loves Me
TTITLE9=So Saudade
TTITLE10=Influencia Dó Jazz
TTITLE11=Zelão
EXTD=YEAR: 1963
EXTT0=
EXTT1=
EXTT2=
EXTT3=
EXTT4=
EXTT5=
EXTT6=
EXTT7=
EXTT8=
EXTT9=
EXTT10=
EXTT11=
PLAYORDER=
